<svg width="65" height="47" viewBox="0 0 65 47" fill="none" xmlns="http://www.w3.org/2000/svg">
<path d="M63.4005 21.6987L46.7611 17.0766L40.5948 1.96629C40.3573 1.38357 39.6306 0.982018 38.809 0.979132C37.9873 0.976245 37.2579 1.37268 37.0163 1.95371L30.7458 17.0204L14.0725 21.5254C13.3363 21.725 12.8478 22.2401 12.8458 22.8206C12.8438 23.3997 13.3286 23.9209 14.0634 24.1244L30.6953 28.745L36.8618 44.3153C37.0956 44.9036 37.8241 45.3093 38.6532 45.3122C39.4805 45.3151 40.2137 44.9145 40.4516 44.3265L46.7274 28.8L63.3932 24.2963C64.1257 24.0994 64.616 23.583 64.618 23.0025C64.6201 22.4234 64.1334 21.9035 63.4005 21.6987Z" fill="#E63963"/>
<path d="M25.9154 36.8082L21.5887 35.6071L19.9203 31.0293C19.7016 30.4245 18.9638 30.0035 18.1197 30.0005C17.2756 29.9976 16.5349 30.4134 16.31 31.0152L14.6095 35.5812L10.2763 36.7519C9.5401 36.9502 9.05166 37.468 9.04962 38.0471C9.04759 38.6262 9.53238 39.1474 10.2672 39.3509L14.5696 40.5478L16.2495 45.5717C16.457 46.1876 17.2022 46.6224 18.0613 46.6254C18.9204 46.6285 19.6687 46.1988 19.8804 45.5831L21.5956 40.5711L25.9063 39.4045C26.6426 39.2075 27.131 38.6897 27.133 38.1106C27.1351 37.5315 26.6503 37.0103 25.9154 36.8082ZM17.9019 6.76758L13.4817 5.5398L11.8537 2.25755C11.5842 1.71213 10.8855 1.34946 10.1013 1.34671C9.31895 1.34396 8.6177 1.70171 8.34254 2.24521L6.69337 5.51595L2.26278 6.71263C1.52653 6.91232 1.03809 7.42875 1.03606 8.00785C1.03402 8.58695 1.51881 9.10819 2.25365 9.31166L6.67572 10.5394L8.30186 13.8217C8.5732 14.3671 9.27192 14.7298 10.0542 14.7325C10.8366 14.7353 11.5378 14.3775 11.813 13.834L13.4621 10.5633L17.8927 9.3666C18.629 9.16692 19.1174 8.65048 19.1195 8.07138C19.1215 7.49228 18.6367 6.97243 17.9019 6.76758Z" fill="#E63963"/>
</svg>
